<?xml version="1.0" encoding="utf-8"?>
<!-- Generator: Adobe Illustrator 28.4.1, SVG Export Plug-In . SVG Version: 6.00 Build 0)  -->
<svg version="1.1" id="Layer_1" xmlns="http://www.w3.org/2000/svg" xmlns:xlink="http://www.w3.org/1999/xlink" x="0px" y="0px"
	 viewBox="0 0 512 512" style="enable-background:new 0 0 512 512;" xml:space="preserve">
<style type="text/css">
	.st0{opacity:0.79;fill:#5DBD77;enable-background:new    ;}
</style>
<g id="Шар_1-2">
	<path class="st0" d="M337.83,251.22l151.68-112.27c-32.16,53.44-64.35,106.87-96.57,160.31L337.83,251.22z M369.45,315.72
		l-85.74,52.36c11.58-32.33,23.16-64.65,34.74-96.98L369.45,315.72z M478.53,112.24L322.51,227.84L280.23,0.01L478.53,112.24z
		 M256.03,23.75l41.33,223.04l-41.33,114.86c-13.78-38.28-27.56-76.56-41.34-114.84C228.46,172.45,242.24,98.1,256.03,23.75z
		 M228.23,368.08l-85.7-52.36l50.97-44.58C205.08,303.43,216.65,335.75,228.23,368.08z M231.75,0
		c-14.1,75.94-28.19,151.89-42.28,227.83L33.41,112.24L231.75,0z M174.15,251.22l-55.1,48.04L22.48,138.95L174.15,251.22z
		 M22.44,192.12l71.05,119.42c4.08,6.83,9.8,12.6,16.68,16.79c32.81,20.09,65.63,40.18,98.46,60.26l-168.05-0.11
		c-10,0-18.1-7.89-18.1-17.63L22.44,192.12z M85.69,416.09h144.28c-20.54,15.49-41.08,30.98-61.62,46.46L85.69,416.09z M256.03,512
		L256.03,512L256.03,512l-60.85-34.5l60.75-46.07c0.02-0.04,0.05-0.09,0.07-0.12l0.07,0.12l60.82,46.03L256.03,512z M343.63,462.59
		l-61.61-46.5h144.34L343.63,462.59z M471.45,388.51l-168.05,0.1l98.48-60.29c6.86-4.2,12.57-9.96,16.63-16.79l71.05-119.42v178.73
		c0,9.73-8.1,17.63-18.1,17.63c0,0-0.01,0-0.01,0V388.51z"/>
</g>
</svg>
