<?xml version="1.0" encoding="utf-8"?>
<!-- Generator: Adobe Illustrator 28.4.1, SVG Export Plug-In . SVG Version: 6.00 Build 0)  -->
<svg version="1.1" id="Layer_1" xmlns="http://www.w3.org/2000/svg" xmlns:xlink="http://www.w3.org/1999/xlink" x="0px" y="0px"
	 viewBox="0 0 512 512" style="enable-background:new 0 0 512 512;" xml:space="preserve">
<style type="text/css">
	.st0{opacity:0.79;fill:#5DBD77;enable-background:new    ;}
</style>
<g id="Шар_2">
	<g id="Шар_1-2">
		<path class="st0" d="M478.22,120.56L273.93,2.66c-6.3-3.59-14.03-3.59-20.34,0L49.27,120.56c-6.22,3.61-10.05,10.26-10.04,17.45
			v235.89c-0.01,7.19,3.82,13.84,10.04,17.45L253.6,509.3c6.3,3.6,14.04,3.6,20.34,0l204.29-117.93
			c6.22-3.61,10.05-10.26,10.04-17.45V138.02C488.28,130.82,484.45,124.17,478.22,120.56z M333.94,257.78l130.06-98.85
			c-27.57,47.05-55.18,94.1-82.81,141.14L333.94,257.78z M361.05,314.57l-73.52,46.1c9.93-28.46,19.86-56.92,29.79-85.38
			L361.05,314.57z M454.58,135.42L320.8,237.21L284.54,36.61L454.58,135.42z M263.79,57.52l35.44,196.38l-35.44,101.13
			c-11.81-33.7-23.63-67.41-35.45-101.11C240.15,188.44,251.97,122.97,263.79,57.52z M239.96,360.67l-73.49-46.1l43.71-39.25
			C220.11,303.76,230.03,332.21,239.96,360.67z M242.98,36.6c-12.09,66.86-24.17,133.73-36.25,200.59L72.9,135.42L242.98,36.6z
			 M193.58,257.78l-47.25,42.29l-82.8-141.14L193.58,257.78z M63.5,205.75l60.92,105.14c3.49,6.02,8.41,11.09,14.3,14.78
			c28.13,17.69,56.28,35.38,84.42,53.06l-144.1-0.1c-8.57,0-15.52-6.95-15.52-15.52L63.5,205.75z M117.73,402.95h123.71
			c-17.61,13.64-35.22,27.27-52.84,40.91L117.73,402.95z M263.79,487.39L263.79,487.39L263.79,487.39l-52.18-30.37l52.09-40.56
			c0.02-0.04,0.04-0.08,0.06-0.11l0.06,0.11l52.15,40.52L263.79,487.39z M338.91,443.89l-52.83-40.94h123.77L338.91,443.89z
			 M448.51,378.67l-144.1,0.09l84.44-53.08c5.88-3.69,10.78-8.77,14.26-14.78l60.92-105.14v157.36c0,8.57-6.95,15.52-15.52,15.52
			c0,0-0.01,0-0.01,0V378.67z"/>
	</g>
</g>
</svg>
